<svg width="60" height="60" viewBox="0 0 60 60" fill="none" xmlns="http://www.w3.org/2000/svg">
<path d="M45 0H14C6.26801 0 0 6.26801 0 14V46C0 53.732 6.26801 60 14 60H45C52.732 60 59 53.732 59 46V14C59 6.26801 52.732 0 45 0Z" fill="white"/>
<path d="M45 0H14C6.26801 0 0 6.26801 0 14V46C0 53.732 6.26801 60 14 60H45C52.732 60 59 53.732 59 46V14C59 6.26801 52.732 0 45 0Z" stroke="#29A0F5"/>
<path d="M46.8883 34.0936L21.0937 14.2693C18.0257 11.9114 13.6272 12.4871 11.2693 15.555C8.91143 18.623 9.48708 23.0215 12.5551 25.3794L38.3497 45.2037C41.4177 47.5616 45.8162 46.986 48.174 43.918C50.5319 40.85 49.9563 36.4515 46.8883 34.0936Z" fill="#0083E1"/>
<path d="M42.6431 12.6673H16.6431C12.7771 12.6673 9.64307 15.8013 9.64307 19.6673C9.64307 23.5333 12.7771 26.6673 16.6431 26.6673H42.6431C46.5091 26.6673 49.6431 23.5333 49.6431 19.6673C49.6431 15.8013 46.5091 12.6673 42.6431 12.6673Z" fill="#29A0F5"/>
<path d="M42.6431 32.6673H16.6431C12.7771 32.6673 9.64307 35.8013 9.64307 39.6673C9.64307 43.5333 12.7771 46.6673 16.6431 46.6673H42.6431C46.5091 46.6673 49.6431 43.5333 49.6431 39.6673C49.6431 35.8013 46.5091 32.6673 42.6431 32.6673Z" fill="#29A0F5"/>
</svg>
